PathFileType	4	(X/Y/Z)	23_coords_data.trc
DataRate	CameraRate	NumFrames	NumMarkers	Units	OrigDataRate	OrigDataStartFrame	OrigNumFrames
30.0	30.0	9	21	m	30.0	21	71
Frame#	Time	THUMB_TIP	THUMB_IP	THUMB_MCP	THUMB_CMC	INDEX_TIP	INDEX_DIP	INDEX_PIP	INDEX_MCP	MIDDLE_TIP	MIDDLE_DIP	MIDDLE_PIP	MIDDLE_MCP	RING_TIP	RING_DIP	RING_PIP	RING_MCP	PINKY_TIP	PINKY_DIP	PINKY_PIP	PINKY_MCP	WRIST
X1	Y1	Z1	X2	Y2	Z2	X3	Y3	Z3	X4	Y4	Z4	X5	Y5	Z5	X6	Y6	Z6	X7	Y7	Z7	X8	Y8	Z8	X9	Y9	Z9	X10	Y10	Z10	X11	Y11	Z11	X12	Y12	Z12	X13	Y13	Z13	X14	Y14	Z14	X15	Y15	Z15	X16	Y16	Z16	X17	Y17	Z17	X18	Y18	Z18	X19	Y19	Z19	X20	Y20	Z20	X21	Y21	Z21
20	0.6666666666666666	0.004060800075531006	0.062426700592041015	0.961385009765625	-0.006282559871673584	0.03959159851074219	0.964094970703125	-0.03460049819946289	0.02661109924316406	0.9680339965820313	-0.06129710006713867	0.03805419921875	0.9780640258789063	0.028989099502563478	0.027840599060058594	0.860531005859375	0.012660799980163574	0.02834779930114746	0.8776740112304687	-0.005937849998474121	0.030000799179077147	0.8930159912109376	-0.04004059982299805	0.035083900451660155	0.9182420043945313	-0.015169599533081054	0.04672090148925781	0.9547540283203125	0.001241860032081604	0.051227298736572266	0.9438369750976563	0.0008129580020904541	0.05786980056762695	0.9170989990234375	-0.045180099487304684	0.05863090133666992	0.9157479858398437	-0.013184700012207031	0.056861801147460936	0.9621530151367188	-0.00041180500388145403	0.06617140197753907	0.9493930053710937	-0.002894020080566406	0.07915560150146485	0.9264290161132812	-0.04645949935913086	0.07823989868164062	0.926708984375	0.011322400093078614	0.12676000213623048	0.916	-0.002225209951400757	0.11381900024414063	0.9260349731445312	-0.015331999778747558	0.10266000366210938	0.933406982421875	-0.03909830093383789	0.08652749633789063	0.9448569946289063	-0.09833589935302735	0.051988201141357424	0.9863309936523438
21	0.7	0.004263410091400147	0.06228229904174805	0.9612360229492187	-0.0061032500267028805	0.03966579818725586	0.9637890014648437	-0.034425098419189455	0.02640850067138672	0.9678839721679687	-0.06107229995727539	0.037905101776123044	0.9779099731445312	0.029023300170898436	0.027848800659179686	0.8603820190429687	0.012659899711608887	0.02831329917907715	0.8775150146484375	-0.005971109867095948	0.029951099395751954	0.892760986328125	-0.04002130126953125	0.03498040008544922	0.9181810302734374	-0.015361900329589845	0.046569000244140624	0.9545599975585938	0.001216729998588562	0.051094600677490234	0.9437360229492188	0.0009191309809684752	0.057804798126220705	0.9170059814453125	-0.04503730010986328	0.05841450119018555	0.9155189819335937	-0.013084799766540527	0.05680860137939453	0.962030029296875	-0.00030768400430679306	0.06611209869384765	0.9492540283203125	-0.00272077989578247	0.07891130065917969	0.9262849731445313	-0.04650320053100586	0.07816120147705079	0.9271060180664062	0.01152050018310547	0.1266070022583008	0.916052001953125	-0.0020399999618530267	0.11363700103759766	0.9259660034179688	-0.015208200454711914	0.10246499633789062	0.9334500122070313	-0.03885039901733398	0.08641960144042969	0.9448709716796875	-0.09803949737548828	0.0518207015991211	0.9861019897460938
22	0.7333333333333333	0.004489490032196045	0.06196220016479492	0.96085302734375	-0.006071750164031982	0.03940140151977539	0.9634450073242188	-0.03447949981689453	0.02617140007019043	0.967468994140625	-0.06120009994506836	0.037794200897216794	0.9777650146484375	0.028826799392700195	0.027790300369262694	0.8600579833984375	0.012521599769592285	0.028258600234985352	0.8772990112304687	-0.0060814499855041506	0.029861200332641603	0.8925399780273438	-0.04008580017089844	0.03489989852905274	0.918031005859375	-0.015322999954223633	0.04637860107421875	0.954551025390625	0.001269090056419372	0.05088249969482422	0.9435230102539063	0.0008018460273742671	0.05761949920654297	0.9167319946289062	-0.045088401794433595	0.058339500427246095	0.9154439697265625	-0.012940099716186523	0.056694000244140626	0.9624349975585937	-0.00035551300644874503	0.06609619903564454	0.9484390258789063	-0.002738640069961548	0.07890129852294922	0.9260679931640625	-0.04608160018920898	0.07797669982910156	0.926760009765625	0.011645500183105468	0.126427001953125	0.9159619750976562	-0.0019587800502777098	0.11347100067138671	0.9259459838867188	-0.01510200023651123	0.10230599975585937	0.9333099975585938	-0.03873699951171875	0.08628500366210938	0.9447100219726563	-0.09800620269775391	0.051981601715087894	0.986427001953125
23	0.7666666666666667	0.004383190155029297	0.06202750015258789	0.9607860107421875	-0.006013669967651367	0.03935509872436523	0.9633060302734375	-0.03447209930419922	0.026195899963378906	0.9675170288085938	-0.0607958984375	0.037527099609375	0.9772689819335938	0.028716999053955077	0.0276737003326416	0.85985302734375	0.012469200134277344	0.02813680076599121	0.877135009765625	-0.0061830000877380374	0.029746299743652345	0.89239501953125	-0.04012030029296875	0.03475529861450195	0.9178209838867187	-0.015472599983215332	0.046514701843261716	0.9546220092773438	0.001318379998207092	0.05074409866333008	0.9431950073242188	0.0007585229873657221	0.05746799850463867	0.9164669799804688	-0.04523009872436524	0.058329399108886716	0.9154710083007812	-0.012618100166320801	0.05645330047607422	0.9612440185546876	-0.00032629498839378303	0.06578160095214844	0.9489630126953125	-0.002742650032043457	0.07866490173339843	0.9257050170898438	-0.046122299194335935	0.07783409881591796	0.9266630249023438	0.01169729995727539	0.12621199798583985	0.9156259765625	-0.0019063700437545771	0.11329599761962891	0.925656982421875	-0.015030400276184082	0.10214900207519531	0.933093017578125	-0.03884270095825195	0.08615769958496093	0.944405029296875	-0.09763069915771484	0.05187160110473633	0.986593017578125
24	0.8	0.004353040218353271	0.06189839935302734	0.9606680297851562	-0.00605256986618042	0.03921060180664063	0.9633049926757813	-0.03436849975585937	0.026177400588989257	0.9676489868164062	-0.06095029830932617	0.03773400115966797	0.9779639892578125	0.028780799865722656	0.027627300262451172	0.8599130249023438	0.012446599960327149	0.028023700714111328	0.8770570068359375	-0.006174379825592041	0.02963669967651367	0.8923150024414063	-0.04017910003662109	0.034658599853515625	0.9177340087890625	-0.01516129970550537	0.04615840148925781	0.9541619873046875	0.001449560046195983	0.05054510116577148	0.9431069946289062	0.0008364949822425842	0.057290699005126955	0.9163920288085937	-0.0452036018371582	0.058270099639892575	0.9153900146484375	-0.01262849998474121	0.05639780044555664	0.961239013671875	-0.00023747499287128402	0.06563459777832031	0.9485079956054687	-0.002678879976272583	0.07858869934082031	0.9253599853515625	-0.046061599731445316	0.07775749969482422	0.9265549926757812	0.011887700080871581	0.12605100250244142	0.9157470092773438	-0.0017401399612426748	0.11313500213623047	0.9256810302734375	-0.014919599533081055	0.10201699829101563	0.933094970703125	-0.03879029846191406	0.08603980255126953	0.94425	-0.09790499877929687	0.05168579864501953	0.9860460205078125
25	0.8333333333333334	0.004607590198516845	0.06171450042724609	0.9607550048828125	-0.005796649932861328	0.03924470138549805	0.96339501953125	-0.03432849884033203	0.025989500045776368	0.9675780029296875	-0.06018109893798828	0.03742940139770508	0.9779739990234375	0.029009099960327148	0.027462200164794923	0.8599829711914062	0.012645400047302247	0.027894800186157226	0.8771060180664062	-0.005968319892883301	0.02951059913635254	0.892375	-0.03998350143432617	0.03451279830932617	0.9178319702148438	-0.01449470043182373	0.045752101898193356	0.9537960205078125	0.0012937799692153932	0.05052579879760742	0.9433060302734375	0.001022519946098327	0.057169998168945316	0.9164509887695312	-0.04508399963378906	0.05808940124511719	0.9154329833984375	-0.012591400146484376	0.056188201904296874	0.961198974609375	-0.00010886599868535902	0.06565480041503906	0.948208984375	-0.002516109943389892	0.07825920104980469	0.9255349731445313	-0.0461619987487793	0.07763690185546875	0.9267230224609375	0.012184599876403808	0.12594100189208984	0.91602001953125	-0.001521849989891052	0.11297000122070312	0.9259190063476562	-0.014706700325012208	0.10184500122070313	0.9332020263671875	-0.038391399383544925	0.08586650085449218	0.9446079711914063	-0.09787139892578126	0.05156930160522461	0.98614599609375
26	0.8666666666666667	0.004858409881591797	0.06175960159301758	0.9605670166015625	-0.005850890159606934	0.03910979843139648	0.9632310180664062	-0.034147499084472656	0.025956100463867187	0.9675700073242187	-0.06025730133056641	0.03747669982910156	0.977791015625	0.029273199081420898	0.027383899688720702	0.8600969848632812	0.01277690029144287	0.027807899475097656	0.8771119995117187	-0.005869200229644775	0.029357200622558595	0.8923300170898437	-0.0398130989074707	0.034393398284912106	0.9177319946289062	-0.014943699836730957	0.04607410049438477	0.9543839721679688	0.001530769944190979	0.05024250030517578	0.9431539916992188	0.0011614899635314939	0.05708330154418945	0.9162830200195312	-0.044875	0.05804610061645508	0.915552978515625	-0.012410900115966798	0.05626639938354492	0.961406982421875	8.580409735441201e-05	0.0654437026977539	0.9486790161132812	-0.002352960109710693	0.07827670288085938	0.9254580078125	-0.045994400024414066	0.07753919982910157	0.926718017578125	0.012459199905395507	0.12573899841308595	0.9160960083007812	-0.001291689991950988	0.11282199859619141	0.9259929809570312	-0.014463299751281739	0.10168000030517578	0.9332219848632812	-0.038381698608398435	0.08572589874267578	0.9444650268554687	-0.09768930053710938	0.051697498321533204	0.9865700073242187
27	0.9	0.005077459812164307	0.061530601501464846	0.9601920166015625	-0.005789370059967041	0.03891310119628906	0.9630579833984375	-0.034125198364257814	0.02579319953918457	0.9672940063476563	-0.060236900329589844	0.03744810104370117	0.9778759765625	0.029280599594116212	0.027131099700927735	0.8599299926757813	0.01286400032043457	0.027584299087524414	0.877031005859375	-0.005794060230255127	0.029173900604248047	0.8922689819335937	-0.039829498291015626	0.03422010040283203	0.9175770263671875	-0.014863900184631348	0.04615390014648438	0.9543209838867187	0.001669059991836547	0.050347400665283204	0.9428189697265625	0.001240069985389709	0.05686849975585938	0.9160969848632813	-0.04481079864501953	0.05787939834594726	0.9151950073242188	-0.012324199676513672	0.056193599700927736	0.9600919799804688	0.00022387099266052201	0.06528299713134765	0.9480819702148438	-0.002219330072402954	0.07813079833984375	0.925177978515625	-0.04571540069580078	0.07745120239257812	0.9264879760742187	0.012779199600219726	0.12535900115966797	0.915927001953125	-0.000995195984840393	0.11253199768066406	0.925781982421875	-0.014220199584960937	0.10146099853515625	0.9330180053710937	-0.038280101776123045	0.0856063003540039	0.9441649780273438	-0.09725250244140625	0.05156240081787109	0.9865969848632813
28	0.9333333333333333	0.005043980121612549	0.06131230163574219	0.9599949951171876	-0.005665890216827393	0.038762699127197264	0.9628189697265624	-0.03394979858398438	0.025791900634765625	0.967344970703125	-0.06001369857788086	0.03719110107421875	0.977177978515625	0.029328100204467772	0.02682550048828125	0.8598159790039063	0.012886599540710449	0.027335800170898438	0.8769530029296875	-0.005776599884033203	0.028958999633789062	0.8922239990234375	-0.039880199432373045	0.0340359001159668	0.9173889770507813	-0.015059200286865235	0.0459989013671875	0.9538309936523437	0.00184440004825592	0.05002790069580078	0.9424099731445312	0.0013250000476837148	0.05657529830932617	0.9158419799804688	-0.04486880111694336	0.05766310119628906	0.915135009765625	-0.012084300041198731	0.055769100189208984	0.9607069702148437	0.000327257007360458	0.06503050231933594	0.9476710205078125	-0.002081330060958862	0.07784369659423829	0.9247520141601563	-0.04560960006713867	0.07717559814453125	0.926218017578125	0.01327519989013672	0.12460399627685546	0.9157030029296875	-0.0005732020139694211	0.11194200134277343	0.925552978515625	-0.013841099739074707	0.10102999877929687	0.9328040161132812	-0.03824720001220703	0.08541580200195313	0.9440900268554687	-0.09691500091552735	0.05157989883422852	0.986219970703125
